<svg width="15" height="14" viewBox="0 0 15 14" fill="none" xmlns="http://www.w3.org/2000/svg">
<path d="M3.66667 13H10.3333M12 7L13.6667 3M9.83333 1C10.0133 1.06667 10.3667 1.35333 10.3333 1.90667C10.2933 2.46 9.71333 2.70667 9.66667 3.25333C9.63333 3.77333 9.89333 4.08 10.1533 4.33333M6.5 1C6.68 1.06667 7.03333 1.35333 6.99333 1.90667C6.96 2.46 6.37333 2.70667 6.34 3.25333C6.3 3.77333 6.56 4.08 6.82 4.33333M3.16667 1C3.34667 1.06667 3.7 1.35333 3.66667 1.90667C3.62667 2.46 3.04667 2.70667 3 3.25333C2.96667 3.77333 3.22667 4.08 3.49333 4.33333M7 13C8.5913 13 10.1174 12.3679 11.2426 11.2426C12.3679 10.1174 13 8.5913 13 7H1C1 8.5913 1.63214 10.1174 2.75736 11.2426C3.88258 12.3679 5.4087 13 7 13Z" stroke="#09090B" stroke-opacity="0.5" stroke-linecap="round" stroke-linejoin="round"/>
</svg>
