<svg width="156" height="267" viewBox="0 0 156 267" fill="none" xmlns="http://www.w3.org/2000/svg">
<path fill-rule="evenodd" clip-rule="evenodd" d="M88.333 232.994C88.3368 232.966 88.3419 232.937 88.3463 232.908C88.3489 232.934 88.4217 232.632 88.4408 232.575C88.5724 232.187 88.7159 231.809 88.8407 231.423C88.8795 231.431 88.9181 231.438 88.9571 231.448C89.0869 231.48 89.1956 231.601 89.3266 231.624C89.4498 231.646 89.4966 231.567 89.6193 231.59C89.7514 231.613 89.8958 231.678 90.0195 231.699C90.1499 231.72 90.2698 231.768 90.4128 231.804C90.6589 231.868 90.9238 231.894 91.1922 231.913C91.5442 231.937 91.901 231.948 92.2273 232.007C92.8189 232.112 93.4827 232.15 94.0815 232.196C94.601 232.235 95.1184 232.05 95.6287 232.012C96.108 231.977 96.5424 232.02 97.0137 231.859C97.6154 231.653 98.3345 231.532 98.8927 231.25C99.4489 230.969 100.047 230.79 100.618 230.544C101.599 230.121 102.599 229.689 103.554 229.215C103.942 229.023 104.291 228.796 104.7 228.652C105.22 228.468 105.732 228.297 106.231 228.058C107.74 227.332 109.279 226.703 110.642 225.718L107.992 236.823C107.556 236.655 106.898 236.863 106.438 236.878C105.843 236.896 105.231 236.899 104.636 236.899C103.979 236.895 103.307 236.886 102.65 236.837C101.914 236.78 101.206 236.625 100.476 236.549C99.2266 236.421 97.996 236.198 96.7469 236.058C96.2499 236.002 95.7713 236.004 95.2752 235.899C94.7836 235.793 94.3629 235.53 93.8728 235.423C93.2822 235.293 92.7874 235.181 92.2358 234.93C92.1126 234.874 91.9867 234.83 91.8599 234.791C91.5044 234.68 91.1401 234.611 90.7931 234.456C90.1115 234.15 89.4257 233.853 88.7401 233.556C88.6565 233.339 88.5211 233.143 88.333 232.994Z" fill="#1A969B"/>
<path fill-rule="evenodd" clip-rule="evenodd" d="M88.333 232.994C88.3368 232.966 88.3419 232.937 88.3463 232.908C88.3489 232.934 88.4217 232.632 88.4408 232.575C88.5724 232.187 88.7159 231.809 88.8407 231.423C88.8794 231.431 88.9181 231.438 88.9571 231.448C89.0869 231.48 89.1956 231.601 89.3266 231.624C89.4498 231.646 89.4966 231.567 89.6193 231.59C89.7514 231.613 89.8958 231.678 90.0195 231.699C90.1499 231.72 90.2698 231.768 90.4128 231.804C90.6589 231.868 90.9238 231.894 91.1922 231.913C91.3094 232.473 91.4132 233.036 91.5439 233.594C91.6368 233.993 91.7506 234.391 91.8598 234.791C91.5044 234.68 91.1401 234.611 90.7931 234.456C90.1115 234.15 89.4257 233.853 88.7401 233.556C88.6565 233.339 88.5211 233.143 88.333 232.994Z" fill="#AB7D5F"/>
<path fill-rule="evenodd" clip-rule="evenodd" d="M106.352 245.171C106.445 245.505 106.458 245.835 106.537 246.18C106.718 246.98 107.072 247.734 107.302 248.52C107.742 250.025 107.664 251.601 107.718 253.174C107.777 254.883 108.116 256.907 107.974 258.75C107.888 259.877 107.621 260.937 107.002 261.816C106.614 262.368 106.271 262.647 106.446 263.359C106.524 263.673 106.671 264.043 106.753 264.369C106.832 264.68 106.608 265.052 107.106 265.067C107.808 265.089 108.556 263.1 108.786 262.616C109.112 261.937 109.511 261.275 109.674 260.567C109.723 260.356 109.758 260.143 109.783 259.924C109.86 259.287 109.866 258.624 109.946 257.994C110.187 256.064 110.586 254.153 110.364 252.171C110.958 252.728 112.012 252.852 112.788 253.074C113.733 253.344 114.61 253.141 115.578 253.308C116.75 253.511 117.863 253.842 119.07 253.788C119.942 253.748 121.11 253.517 121.951 253.757C123.236 254.124 123.945 256.715 124.366 257.74C124.606 258.323 124.897 258.904 125.168 259.48C125.486 260.153 125.782 260.822 125.945 261.487C126.012 261.762 125.869 262.089 125.944 262.363C125.984 262.505 126.221 262.677 126.238 262.749C126.324 263.101 126.278 263.483 126.38 263.824C126.494 264.208 126.984 265.029 127.24 265.354C127.443 265.611 128.421 266.66 128.752 266.257C129.06 265.88 128.497 265.627 128.414 265.324C128.323 264.993 128.316 264.604 128.229 264.297C128.042 263.651 127.752 262.962 127.644 262.294C127.582 261.907 127.689 261.512 127.585 261.134C127.496 260.805 127.308 260.673 127.242 260.279C127.215 260.113 127.192 259.945 127.174 259.776C127.007 258.29 127.143 256.679 127.083 255.202C127.045 254.277 127.396 253.713 127.354 252.824C127.315 252.037 127.331 251.247 127.304 250.459C127.245 248.77 127.128 245.407 127.128 245.407L106.094 244.435C105.963 244.925 106.272 244.878 106.352 245.171Z" fill="#BA8C6A"/>
<path fill-rule="evenodd" clip-rule="evenodd" d="M50.629 91.6452C50.578 88.786 50.5254 85.8296 51.2066 82.9817C51.4798 81.8397 51.8747 80.7224 52.2567 79.6419C52.609 78.645 52.9735 77.6143 53.2405 76.5682C53.2974 76.3455 53.3554 76.08 53.4168 75.799C53.764 74.212 54.2886 71.8136 55.8846 71.3463L55.9428 71.5453C54.4648 71.9781 53.9562 74.3041 53.6195 75.8434C53.5575 76.1263 53.4992 76.3933 53.4413 76.6194C53.172 77.6746 52.8061 78.7098 52.4522 79.711C52.072 80.7865 51.6789 81.8984 51.4082 83.03C50.7333 85.8522 50.7856 88.7952 50.8362 91.6414C50.8497 92.4005 50.8638 93.1853 50.8638 93.9565V105.004C50.8638 107.149 50.8609 109.452 50.8408 111.763C50.8309 112.896 50.9863 114.003 51.1366 115.073C51.2625 115.97 51.3928 116.897 51.4267 117.841C51.454 118.604 51.4331 119.377 51.413 120.125C51.3854 121.154 51.3566 122.217 51.4539 123.259C51.5139 123.901 51.6032 124.523 51.6896 125.124C51.8507 126.244 52.0029 127.303 51.9811 128.485C51.9606 129.596 52.1272 130.678 52.2884 131.724C52.4156 132.55 52.5472 133.405 52.5888 134.277C52.6063 134.643 52.6164 135.003 52.6261 135.35C52.6585 136.499 52.6889 137.584 52.9742 138.76C53.1503 139.486 53.2849 140.204 53.415 140.899C53.7265 142.562 54.0208 144.134 54.8361 145.705C55.3463 146.688 55.8466 147.696 56.3306 148.671C56.6902 149.395 57.0621 150.144 57.435 150.877C58.1977 152.376 58.7588 153.916 59.3015 155.405C59.5836 156.179 59.8754 156.98 60.1953 157.776C60.538 158.629 61.0268 159.478 61.4993 160.299C61.7907 160.805 62.0919 161.329 62.3529 161.843C62.883 162.889 63.3447 163.968 63.7911 165.011C64.2737 166.139 64.7726 167.306 65.3596 168.433C66.5332 170.687 67.1153 172.815 67.6557 174.978C68.1137 176.811 69.0481 178.557 69.9518 180.246L70.1339 180.586C70.4583 181.194 70.7243 181.809 70.9816 182.405C71.311 183.167 71.6515 183.955 72.1121 184.714C72.3864 185.167 72.659 185.643 72.9225 186.103C73.5525 187.202 74.2039 188.339 74.9689 189.327C75.4094 189.895 75.9252 190.409 76.4241 190.906C76.9209 191.401 77.4346 191.912 77.8783 192.481C78.4705 193.24 79.198 193.982 79.9016 194.699C81.1184 195.938 82.3766 197.22 83.0733 198.71C83.541 199.709 84.1669 200.664 84.7723 201.587C85.4629 202.64 86.177 203.728 86.6896 204.923C87.4888 206.786 88.1908 208.966 88.776 211.402C89.0658 212.609 89.3714 213.854 89.7105 215.211C89.8784 215.883 89.9012 216.52 89.9233 217.136C89.9404 217.613 89.9581 218.107 90.0428 218.617C90.165 219.353 90.3414 220.093 90.5121 220.808C90.8086 222.05 91.1152 223.335 91.1458 224.644C91.1882 226.452 91.1744 228.294 91.1612 230.075C91.1546 230.949 91.1479 231.854 91.1479 232.742C91.1479 233.239 91.1735 233.77 91.1982 234.283C91.2461 235.273 91.2954 236.297 91.1769 237.234C91.1098 237.763 90.9979 238.265 90.8897 238.749C90.7254 239.485 90.5701 240.181 90.5586 240.967C90.5303 242.893 90.5439 244.854 90.5569 246.751C90.5643 247.823 90.5719 248.932 90.5719 250.022C90.5719 250.361 90.5336 250.848 90.4892 251.411C90.4771 251.564 90.4646 251.723 90.4522 251.887C90.3844 251.868 90.3164 251.85 90.2485 251.831C90.2598 251.683 90.2713 251.537 90.2824 251.395C90.3265 250.836 90.3645 250.353 90.3645 250.022C90.3645 248.933 90.3569 247.824 90.3495 246.752C90.3365 244.855 90.3229 242.892 90.3513 240.964C90.363 240.156 90.5279 239.418 90.6873 238.704C90.7946 238.224 90.9053 237.728 90.9711 237.208C91.0874 236.289 91.0385 235.274 90.9912 234.293C90.9663 233.777 90.9406 233.244 90.9406 232.742C90.9406 231.853 90.9472 230.948 90.9538 230.073C90.9671 228.294 90.9808 226.454 90.9386 224.648C90.9084 223.362 90.6043 222.088 90.3103 220.856C90.1388 220.137 89.9616 219.395 89.8381 218.651C89.7513 218.128 89.7334 217.627 89.716 217.144C89.6933 216.51 89.6719 215.912 89.5093 215.261C89.1701 213.904 88.8642 212.658 88.5744 211.451C87.9919 209.026 87.2937 206.857 86.499 205.005C85.9936 203.827 85.2846 202.746 84.5989 201.7C83.9896 200.771 83.3595 199.81 82.8856 198.797C82.2039 197.34 80.9582 196.071 79.7537 194.844C79.0459 194.123 78.3141 193.377 77.7149 192.609C77.2791 192.05 76.77 191.543 76.2778 191.053C75.7743 190.551 75.2537 190.033 74.805 189.454C74.0312 188.455 73.3761 187.311 72.7426 186.206C72.4797 185.747 72.2079 185.272 71.9348 184.822C71.4668 184.05 71.1234 183.255 70.7913 182.487C70.5356 181.895 70.2713 181.284 69.951 180.684L69.769 180.344C68.8594 178.644 67.9187 176.886 67.4545 175.028C66.9173 172.878 66.3388 170.763 65.1757 168.529C64.585 167.395 64.0846 166.224 63.6005 165.093C63.1554 164.052 62.695 162.976 62.168 161.937C61.9095 161.427 61.6097 160.906 61.3197 160.403C60.8434 159.576 60.351 158.72 60.003 157.854C59.6818 157.054 59.3894 156.252 59.1067 155.476C58.5412 153.924 58.0071 152.459 57.2503 150.971C56.8769 150.237 56.5048 149.488 56.1449 148.763C55.6613 147.789 55.1614 146.782 54.652 145.8C53.8226 144.202 53.5255 142.616 53.2112 140.937C53.0816 140.245 52.9476 139.529 52.7728 138.809C52.4823 137.611 52.4514 136.516 52.4188 135.356C52.4091 135.01 52.3991 134.651 52.3816 134.287C52.3406 133.425 52.2099 132.577 52.0835 131.756C51.921 130.701 51.753 129.609 51.7739 128.481C51.7954 127.316 51.6443 126.265 51.4843 125.153C51.3976 124.55 51.3079 123.926 51.2474 123.279C51.1489 122.224 51.1779 121.154 51.2057 120.12C51.2258 119.375 51.2465 118.605 51.2194 117.849C51.1859 116.916 51.0565 115.994 50.9313 115.102C50.78 114.024 50.6234 112.91 50.6334 111.761C50.6536 109.451 50.6564 107.148 50.6564 105.004V93.9565C50.6564 93.1872 50.6424 92.4033 50.629 91.6452Z" fill="black" stroke="black" stroke-width="2"/>
<path fill-rule="evenodd" clip-rule="evenodd" d="M27.2748 66.4255C27.2581 66.4166 27.2599 66.4179 27.2748 66.4255V66.4255Z" fill="#F5938A"/>
<path fill-rule="evenodd" clip-rule="evenodd" d="M0.616095 46.3652L0 51.4848C0.0799596 53.8593 0.224026 56.2321 0.428928 58.5987C0.895607 63.971 1.67895 69.3135 2.72933 74.6022C3.17411 76.8402 3.70212 79.0682 4.27561 81.2758C4.41135 81.7982 4.55106 82.3191 4.6975 82.8389C4.70563 82.8666 4.71365 82.8953 4.72178 82.923C4.72069 82.9162 4.71851 82.9103 4.71732 82.9043C4.72079 82.9152 4.72406 82.9281 4.72713 82.9418C4.72604 82.935 4.72396 82.929 4.72178 82.923C4.73367 82.9674 4.74655 83.0109 4.75834 83.0553C4.75319 83.0347 4.74784 83.0159 4.74328 82.9981C4.75418 83.0348 4.76349 83.0684 4.77013 83.0921C4.85217 83.3702 4.9353 83.6476 5.0212 83.9253C5.33262 84.9309 5.67089 85.9282 6.04502 86.9127C6.4153 87.8901 6.82134 88.8545 7.26899 89.7992C7.70882 90.7295 8.2616 91.6018 8.71619 92.5207C8.65357 92.3899 8.62612 92.3332 8.62345 92.3233C8.64079 92.3455 8.82835 92.707 8.89494 92.8123C9.03841 93.0397 9.18406 93.2654 9.33377 93.4886C9.65004 93.962 9.9788 94.4274 10.3201 94.8829C10.998 95.7874 11.725 96.655 12.4951 97.4828C12.6768 97.6784 12.8607 97.8715 13.0468 98.0619C13.1565 98.1744 13.2655 98.3079 13.3882 98.4067C12.6835 97.8368 13.8572 98.8641 13.5752 98.5895C13.6275 98.6389 13.6756 98.6838 13.6815 98.6902C13.8057 98.8082 13.9301 98.9254 14.0555 99.0407C14.3045 99.2722 14.5577 99.5002 14.8134 99.7239C15.7453 100.54 16.7172 101.308 17.7234 102.03C18.7222 102.749 19.7543 103.423 20.8104 104.056C21.048 104.199 21.2869 104.355 21.5343 104.481C21.4165 104.421 21.3535 104.389 21.3299 104.379C21.3997 104.418 21.7796 104.616 21.8809 104.671C22.4699 104.996 23.0651 105.309 23.6656 105.612C28.1549 107.875 32.9171 109.576 37.6719 111.188C38.9742 111.63 40.2908 112.018 41.617 112.381C41.6391 112.387 41.6697 112.396 41.7011 112.405C41.829 112.437 41.9559 112.469 42.0838 112.5C42.3832 112.574 42.684 112.646 42.9848 112.716C43.7036 112.883 44.4267 113.038 45.1511 113.182C47.8058 113.706 50.4913 114.071 53.1863 114.308C55.8926 114.547 58.6085 114.658 61.3249 114.685C61.9925 114.691 62.6595 114.693 63.3272 114.69C63.5039 114.689 63.6815 114.688 63.8585 114.686C63.8585 114.686 63.8537 114.685 63.852 114.684C63.8586 114.685 63.8661 114.686 63.8737 114.686C63.8833 114.686 63.8928 114.686 63.9023 114.686C64.3174 114.679 64.0005 114.695 63.8737 114.686C63.8689 114.686 63.8631 114.686 63.8585 114.686C64.1812 114.765 64.6976 114.638 65.0258 114.624C66.3857 114.564 67.747 114.524 69.1069 114.48C71.8411 114.392 74.5784 114.293 77.2998 114.002C78.469 113.877 79.6235 113.763 80.784 113.56C81.9837 113.348 83.1816 113.111 84.3935 112.979C89.1566 110.937 93.5785 108.104 97.6003 104.78C101.983 101.159 106.081 96.5329 109.684 92.1661C112.858 88.3168 115.648 84.3094 117.394 79.6283C118.245 77.3468 119.298 75.1057 119.805 72.7179C120.265 70.5582 120.361 68.2688 120.626 66.0733C121.158 61.6682 121.981 57.3888 121.422 52.965C121.043 49.9644 120.946 46.8755 120.043 43.9762C119.336 41.7066 118.52 39.4449 117.613 37.2487C115.704 32.6222 113.495 27.9732 111.126 23.5531C111.052 23.4114 110.975 23.2705 110.899 23.1296C110.715 22.7885 110.531 22.4484 110.345 22.1081C109.864 21.2263 109.376 20.3455 108.884 19.4651C106.717 17.883 104.641 16.1733 102.479 14.5821C101.658 13.9784 100.825 13.392 99.9704 12.8357C99.5676 12.5733 99.1602 12.3181 98.7469 12.0707C98.6472 12.011 98.4015 11.8716 98.3704 11.8526C98.3704 11.8526 98.3768 11.8553 98.3831 11.8579C98.1764 11.7433 97.9696 11.6286 97.7604 11.5194C95.8978 10.5363 93.9451 9.69975 92.0107 8.86924C90.6491 8.28438 89.2784 7.72023 87.8968 7.18254C87.0526 6.85187 86.2034 6.53199 85.3509 6.22212C84.8626 6.04404 84.3718 5.86944 83.8806 5.69959C82.4696 5.20897 81.0491 4.74868 79.6169 4.32227C79.3137 4.23239 79.0103 4.14331 78.7066 4.0572C78.4768 3.9913 78.2478 3.92649 78.0179 3.86257C77.7851 3.79727 77.5522 3.73395 77.3191 3.67152C77.1859 3.63634 77.0526 3.60126 76.9203 3.56618C76.9148 3.5646 76.9102 3.56311 76.9065 3.56261C76.8861 3.55736 76.863 3.55171 76.8351 3.54448C75.7847 3.28535 74.7323 3.04316 73.6719 2.82674C72.4728 2.58217 71.2695 2.35614 70.0628 2.14982C69.2416 2.00901 68.4193 1.87751 67.5949 1.75542C66.2377 1.55485 64.8773 1.37966 63.5138 1.23181C62.9399 1.16938 62.3655 1.1117 61.7904 1.05968C60.5526 0.946017 59.313 0.855048 58.0712 0.789546C57.1759 0.74099 56.279 0.705613 55.3816 0.682623C54.6668 0.66439 53.952 0.654678 53.2381 0.652344C52.928 0.652344 52.6177 0.652344 52.308 0.655372L52.1448 0.655768C52.1132 0.655867 52.0615 0.657255 51.9821 0.659138C51.759 0.663795 51.5351 0.668353 51.3121 0.673903C50.7701 0.687974 50.2284 0.706802 49.6862 0.730288C49.1258 0.754566 48.5656 0.784492 48.0047 0.821058C46.5955 0.909253 45.188 1.03193 43.7839 1.18949C39.7796 1.63839 35.807 2.3709 31.9066 3.38513C31.406 3.51485 30.9068 3.64952 30.4088 3.78914C30.3191 3.81362 30.2291 3.83909 30.1401 3.86465C29.8649 3.94611 29.5898 4.02657 29.3146 4.10902C28.3149 4.41166 27.3207 4.73213 26.3321 5.07044C24.8292 5.58543 23.3413 6.14195 21.8688 6.7382C21.0491 7.07007 20.3147 7.58517 19.7261 8.24534C19.7231 8.2487 19.7201 8.25217 19.717 8.25554C19.0294 9.02729 18.3625 9.81767 17.6895 10.6027C17.4298 10.9046 17.1691 11.2065 16.9067 11.5071C16.4895 11.983 16.0663 12.4543 15.6336 12.9159C15.4036 13.1621 15.1709 13.4053 14.935 13.6443C14.8119 13.7708 14.6872 13.8951 14.5617 14.0184C14.1467 14.4278 13.7218 14.8253 13.2833 15.2089C12.9888 15.4666 11.4681 16.8073 11.0841 17.3253C7.87528 21.6517 5.33787 26.6728 3.58966 31.7212C1.93904 36.4891 1.21891 41.3557 0.616095 46.3652Z" fill="#EF4444"/>
<path fill-rule="evenodd" clip-rule="evenodd" d="M52.9185 113.425C52.9713 114.141 53.6089 114.669 53.755 115.387C53.9998 116.589 54.0169 117.686 53.8639 118.935C53.7789 119.629 53.9753 120.924 53.1138 121.041C52.1104 121.177 50.963 119.036 51.2685 118.233C51.3096 119.144 50.5215 119.649 49.8656 119.229C49.1588 118.777 49.1593 117.06 49.3428 116.378C49.3559 118.195 46.9279 120.754 46.17 118.011C45.6402 116.093 46.2574 112.518 47.8189 111.201L52.9185 113.425Z" fill="#EF4444"/>
<path fill-rule="evenodd" clip-rule="evenodd" d="M122.844 223.35C122.885 223.394 122.927 223.438 122.969 223.484L122.952 223.257C122.916 223.288 122.88 223.318 122.844 223.35Z" fill="#F5938A"/>
<path fill-rule="evenodd" clip-rule="evenodd" d="M150.88 179.567C150.834 179.745 150.848 179.917 150.921 180.082C151.689 180.214 152.921 180.625 153.124 181.514C153.223 181.945 153.02 182.34 153.233 182.775C153.377 183.069 153.646 183.614 153.823 183.853C154.038 184.142 154.397 184.174 154.509 184.557C154.575 184.782 154.408 185.024 154.508 185.244C154.597 185.44 154.843 185.496 154.99 185.67C155.202 185.921 155.609 186.734 155.625 187.08C155.654 187.688 155.375 187.604 154.869 187.671C155.071 188.237 155.313 188.712 155.472 189.301C155.774 190.413 155.311 189.8 154.814 190.466C154.627 190.715 154.734 191.654 154.796 191.94C154.917 192.497 155.078 192.852 155.056 193.455C155.025 194.303 154.854 194.554 154.202 195.081C153.705 195.482 153.653 195.569 153.661 196.25C153.672 197.065 154.014 198.729 153.138 199.106C153.256 199.359 153.661 200.066 153.34 200.378C153.071 200.64 152.113 200.345 151.743 200.462C151.765 200.954 152.31 201.322 152.304 201.809C152.293 202.647 151.56 202.413 151.139 202.63C150.65 202.882 150.999 203.465 150.831 203.972C150.595 204.684 150.145 204.87 149.483 204.875C148.099 204.887 148.735 205.514 148.228 206.4C147.872 207.024 145.872 207.866 145.3 207.197C145.321 207.408 145.449 208.144 145.312 208.333C145.039 208.71 144.203 208.388 143.77 208.473C143.258 208.573 141.917 209.285 141.706 208.294C141.256 209.832 139.702 208.59 138.777 208.749C138.318 208.828 138.007 209.21 137.556 209.393C136.709 209.736 135.662 209.674 134.79 209.427C134.552 209.917 133.856 210.049 133.366 209.833C132.983 209.664 132.831 209.085 132.39 209.071C132.009 209.059 131.913 209.46 131.637 209.546C131.234 209.671 131.237 209.505 130.925 209.317C130.813 209.249 130.837 209.123 130.698 209.055C130.576 208.995 130.395 209.109 130.301 209.054C129.842 208.784 129.508 207.989 129.807 207.427C130.012 207.041 130.414 206.701 130.641 206.278C131.308 205.038 132.165 203.724 132.49 202.34C132.596 201.887 132.674 200.862 132.484 200.416C132.285 199.948 131.996 199.957 131.957 199.343C131.89 198.284 131.958 197.52 132.429 196.563C132.883 195.641 133.465 194.771 133.873 193.828C134.308 192.824 134.519 191.716 134.76 190.654C135.349 188.065 135.672 185.313 134.917 182.729C134.414 181.005 133.756 179.241 132.535 177.885C131.056 176.242 128.491 175.504 126.567 174.551C123.212 172.887 120.203 170.563 116.978 168.669C115.351 167.714 113.795 166.637 112.191 165.645C110.826 164.8 109.639 163.758 108.313 162.869C106.328 161.539 104.248 160.417 101.826 160.152C99.5349 159.902 97.2528 159.643 95.0032 160.231C93.7513 160.559 92.3245 160.716 91.1425 161.253C89.8657 161.832 88.83 163.062 87.8074 163.976C85.5187 166.02 82.9747 167.74 80.5242 169.577C79.5559 170.303 78.1388 171.597 76.9502 171.786C75.5439 172.01 75.0684 171.233 74.0953 170.489C73.7906 170.78 73.1997 171.156 72.7464 171.006C72.0418 170.774 72.0314 169.594 71.8559 168.978C71.0357 169.585 70.0988 169.18 69.2752 168.758C69.0633 168.65 69.0273 168.751 68.8559 168.582C68.6254 168.355 68.6091 167.619 68.5881 167.336C68.5114 166.305 68.7583 165.173 69.624 164.513C68.9594 164.773 68.0415 163.716 67.7852 163.272C67.2994 162.429 67.1063 160.666 68.2928 160.315C68.2966 159.819 67.8012 159.419 68.057 158.886C68.2866 158.409 68.6527 158.488 69.1263 158.4C69.0792 157.807 68.6897 157.434 69.0093 156.812C69.362 156.124 70.1298 156.087 70.8097 155.883C70.8646 155.341 70.6608 155.169 70.9522 154.548C71.3012 153.805 72.2859 153.259 72.9833 152.906C73.4972 152.646 74.8634 152.214 75.2807 152.791C75.2416 152.195 75.1595 151.482 75.2484 150.893C75.3244 150.39 75.6672 150.169 75.7973 149.691C75.92 149.239 75.6031 148.629 75.9759 148.288C76.4731 147.832 77.6935 148.249 78.3166 148.147C78.5093 147.437 78.3035 146.327 77.5962 145.965C76.9762 146.544 77.8218 146.886 78.342 146.723C79.3852 146.395 79.3545 145.646 80.5673 146.132C81.2395 145.571 80.8691 144.341 81.9267 143.952C82.7247 143.657 83.3726 144.282 83.3331 145.074C83.0788 144.425 83.7189 143.242 84.0491 142.85C84.8688 141.877 85.9119 141.318 87.1477 141.036C88.367 140.758 90.0325 140.985 90.023 142.572C90.5498 141.777 91.058 140.54 92.0475 140.221C92.9881 139.917 92.9461 140.411 93.1098 141.292C93.3746 141.203 93.5489 141.008 93.6326 140.708C94.0005 140.392 94.4273 140.254 94.9133 140.295C95.8155 140.344 96.4011 141.096 97.2172 141.377C97.7895 141.574 99.1734 141.73 99.7243 141.357C100.765 140.652 99.8955 139.492 100.365 138.679C101.82 138.494 102.195 140.837 103.311 140.619C103.747 140.533 104.248 139.626 104.765 139.731C105.319 139.843 105.372 140.743 105.246 141.164C105.706 139.136 108.152 139.724 109.319 140.606C110.04 141.15 110.473 141.651 110.573 142.572C110.629 143.083 110.461 143.611 110.591 144.11C111.137 143.928 111.646 143.42 112.215 143.838C112.867 144.316 112.213 145.039 112.622 145.637C113.257 145.681 115.693 146.084 115.305 144.857C115.223 145.278 115.264 145.874 115.528 146.225C116.286 146.09 116.765 145.215 117.634 145.354C118.628 145.512 118.352 146.267 118.337 147.147C119.28 146.915 120.215 145.947 121.083 146.815C121.629 147.36 121.434 148.002 121.358 148.691C122.705 148.502 125.301 147.987 126.063 149.636C126.366 150.386 126.217 151.005 125.616 151.494C125.298 151.633 125.004 151.81 124.732 152.022C124.248 153.478 129.156 154.822 129.56 152.583C129.856 152.849 129.766 153.343 130.005 153.675C130.386 154.201 130.788 154.048 131.384 153.858C132.129 153.62 133.069 152.966 133.58 153.985C133.83 154.486 133.701 155.415 133.59 155.916C133.791 154.405 135.448 154.717 136.167 155.637C137.078 156.803 136.564 157.574 136.109 158.708C137.108 158.718 138.01 158.534 138.471 159.6C138.827 160.423 138.865 162.308 137.787 162.675C137.892 161.37 139.406 161.288 140.164 162.037C140.161 162.393 140.308 162.581 140.604 162.603C141.121 162.37 141.662 162.227 142.228 162.174C144.091 161.843 147.475 161.763 148.088 164.193C148.199 164.632 148.077 166.748 147.285 166.832C148.592 166.174 150.665 166.228 151.334 167.814C151.913 169.188 150.934 170.309 150.321 171.399C151.559 171.998 153.815 172.012 154.55 173.424C155.252 174.773 153.739 175.85 152.782 176.502C153.663 176.477 155.775 176.407 155.987 177.655C156.165 178.701 154.46 179.688 153.654 179.878C154.51 179.662 156.023 180.148 155.892 181.201C155.749 182.352 154.397 183.551 153.39 183.932C154.117 184.235 155.787 185.545 155.307 186.39C155.118 186.722 153.519 187.06 154.495 187.63L150.88 179.567Z" fill="#553821"/>
<path fill-rule="evenodd" clip-rule="evenodd" d="M128.816 249.441C128.597 249.437 128.379 249.434 128.16 249.428C125.389 248.943 122.659 248.245 119.866 247.874C119.837 247.87 119.809 247.866 119.78 247.863C119.675 247.849 119.57 247.835 119.465 247.822C119.526 247.83 119.586 247.838 119.647 247.846C117.651 247.601 115.641 247.6 113.633 247.552C111.641 247.013 109.658 246.44 107.646 245.979C107.48 245.941 107.314 245.904 107.147 245.867C107.142 245.845 107.136 245.824 107.131 245.803C107.08 245.595 107.039 245.386 107.003 245.175C106.816 243.337 106.949 241.485 106.856 239.642C107.097 238.326 107.286 237.003 107.403 235.677C107.955 233.942 108.399 232.185 108.69 230.402C108.83 229.983 108.963 229.563 109.089 229.142C109.502 227.761 109.533 226.849 109.481 225.394C109.461 224.828 109.544 224.297 109.546 223.732C109.546 223.587 109.467 223.49 109.397 223.391C109.449 223.177 109.502 222.962 109.554 222.747L120.767 218.992C121.749 219.21 121.995 219.446 122.278 219.909C122.868 222.554 123.632 225.16 124.419 227.751C125.375 230.897 126.386 234.027 127.268 237.195C128.04 239.967 128.502 242.764 128.893 245.611C128.993 246.338 129.089 247.071 129.188 247.809C129.118 248.149 129.047 248.493 128.968 248.834C128.921 249.039 128.87 249.242 128.816 249.441Z" fill="#1A969B"/>
<path fill-rule="evenodd" clip-rule="evenodd" d="M133.505 205.072C133.62 204.68 133.638 204.646 133.617 204.731C133.577 204.843 133.54 204.955 133.507 205.068C133.506 205.069 133.505 205.071 133.505 205.072Z" fill="#BA8C6A"/>
<path fill-rule="evenodd" clip-rule="evenodd" d="M61.2103 182.068C61.5443 181.027 62.1279 180.279 62.5129 179.276C63.1552 177.605 64.2543 176.472 65.6683 175.381C68.6907 173.048 72.1124 171.28 74.7273 168.49C76.6027 166.488 78.6033 164.606 80.677 162.815C81.2781 162.683 81.8943 162.653 82.4966 162.528C84.1842 162.178 85.66 161.317 86.961 160.221C88.0759 159.282 89.081 158.215 90.1646 157.24C90.4357 156.996 90.7099 156.756 90.9893 156.521C91.1231 156.409 91.259 156.3 91.3946 156.19C91.4162 156.175 91.4398 156.158 91.4677 156.137C92.0085 155.745 92.5753 155.389 93.1911 155.127C93.316 155.073 93.4328 155.003 93.5419 154.92C95.2524 155.924 97.0216 156.834 98.7901 157.705C106.509 161.509 114.29 165.253 121.491 169.995C122.403 170.596 123.305 171.212 124.194 171.847C124.648 172.172 125.099 172.501 125.546 172.835C125.741 172.981 125.935 173.128 126.129 173.276C126.467 173.549 126.469 173.545 126.392 173.481C128.184 174.894 129.887 176.403 131.508 178.009C133.116 179.603 134.658 181.262 136.218 182.902C136.776 183.488 137.352 184.057 137.901 184.651C137.917 184.671 137.932 184.692 137.947 184.713C137.993 184.873 138.032 185.036 138.063 185.201C138.145 186.391 138.089 187.58 137.95 188.764C137.483 191.89 136.598 194.959 135.834 198.021C135.679 198.645 135.512 199.265 135.333 199.882C135.151 200.475 134.959 201.065 134.751 201.647C134.575 202.142 134.382 202.631 134.182 203.117C134.156 203.179 133.924 203.754 134.114 203.282C134.28 202.868 134.123 203.258 134.079 203.361C133.982 203.589 133.884 203.817 133.787 204.045C133.286 205.215 132.782 206.386 132.374 207.593C132.134 208.303 132.25 209.048 132.591 209.679C131.457 211.098 130.243 212.364 128.779 213.681C126.775 215.483 125.281 217.787 123.389 219.703C121.082 222.041 118.709 224.574 115.57 225.759C113.411 226.574 111.668 225.729 109.51 225.179C108.139 224.83 107.453 224.298 106.26 223.732C105.816 223.523 105.221 223.527 104.749 223.383C103.906 223.126 103.41 222.731 102.608 222.366C101.447 221.838 100.222 221.697 99.0536 221.185C98.4608 220.926 98.0873 220.538 97.4343 220.29C96.5787 219.965 95.6079 219.975 94.7524 219.65C94.002 219.364 93.4634 218.897 92.748 218.581C91.3932 217.983 89.9521 217.632 88.686 216.787C88.0186 216.341 87.5817 215.706 86.8247 215.326C86.0589 214.941 85.5821 214.756 84.8911 214.212C79.8923 210.279 74.0429 207.232 69.4768 202.763C67.0958 200.432 64.898 197.13 63.7777 193.986C63.1833 192.318 62.8559 190.362 62.1439 188.788C61.7144 187.839 61.3343 187.399 61.1055 186.319C60.7757 184.76 60.7153 183.61 61.2103 182.068Z" fill="#BA8C6A"/>
<path fill-rule="evenodd" clip-rule="evenodd" d="M112.945 212.042C113.171 210.991 112.749 208.597 111.764 207.829C109.972 206.432 107.577 207.716 105.704 208.254C105.128 208.6 104.532 208.916 103.929 209.226C103.671 210.366 103.306 211.471 102.919 212.572C103.667 213.505 104.321 214.526 104.768 215.624C104.897 215.651 105.021 215.679 105.135 215.708C106.377 216.028 107.839 216.666 109.105 216.694C111.898 216.755 112.456 214.307 112.945 212.042Z" fill="#DC816F"/>
<path fill-rule="evenodd" clip-rule="evenodd" d="M76.056 166.832C75.7276 167.557 75.2422 168.193 74.8555 168.884C74.4429 169.467 73.9881 170.021 73.5019 170.544C72.9911 170.858 72.5034 171.21 72.0373 171.59C71.5215 171.843 71.0222 172.126 70.5404 172.436C70.5374 172.407 70.534 172.376 70.5302 172.343C70.484 171.937 70.5357 171.496 70.5357 171.087C70.5357 169.208 70.545 167.329 70.5357 165.45C70.5311 164.517 70.6813 163.531 71.228 162.73C71.7388 161.982 72.471 162.354 73.0996 162.809C73.8798 163.373 74.792 164.15 75.2614 164.993C75.5808 165.567 75.9649 166.059 76.1882 166.622C76.1371 166.685 76.0917 166.755 76.056 166.832Z" fill="#AB7D60"/>
<path fill-rule="evenodd" clip-rule="evenodd" d="M74.7303 169.055C74.351 169.575 73.9401 170.072 73.5018 170.544C73.1763 170.744 72.861 170.961 72.5539 171.189C72.1177 171.082 71.8818 170.863 71.9066 170.398C71.9403 169.762 72.6074 168.34 73.2143 168.167C72.8875 167.953 72.978 166.878 73.0353 166.494C73.1646 165.623 73.479 165.989 73.9477 166.43C74.5225 166.972 74.7328 167.035 74.717 167.889C74.712 168.164 74.7303 168.44 74.7303 168.715V169.055Z" fill="#A17252"/>
<path fill-rule="evenodd" clip-rule="evenodd" d="M74.5547 180.974C72.9692 180.071 71.4429 179.063 69.9064 178.053C69.4939 178.05 69.0813 178.049 68.6687 178.044C68.6568 178.047 68.6439 178.05 68.6321 178.053C68.1089 178.938 67.4707 179.766 66.799 180.571C66.8044 180.599 66.8082 180.626 66.8145 180.655C66.7849 180.656 66.7553 180.657 66.7258 180.657C66.2665 181.204 65.7936 181.741 65.3328 182.277C65.2716 183.352 65.2126 184.427 65.1855 185.503C65.3078 185.893 65.4301 186.283 65.5525 186.674C66.4709 187.462 67.4097 188.234 68.3835 188.954C69.6771 188.686 70.9869 188.398 72.3016 188.158C72.6713 187.715 73.0534 187.283 73.4429 186.858C73.8314 185.619 74.3702 184.141 74.6369 182.704C74.601 182.133 74.5825 181.55 74.5547 180.974Z" fill="#DC816F"/>
<path fill-rule="evenodd" clip-rule="evenodd" d="M75.2436 176.792C75.8966 176.196 76.6217 175.564 77.2466 175.593C77.5352 175.606 77.601 175.706 77.6226 175.739C77.9037 176.158 77.4261 177.494 77.17 178.209C77.09 178.433 77.0272 178.599 76.969 178.784C77.1166 178.923 77.267 179.059 77.4225 179.189L77.8376 179.297C77.8786 179.139 77.9866 178.828 78.0901 178.539C78.4905 177.42 78.9909 176.02 78.4354 175.191C78.2701 174.945 77.9378 174.645 77.2923 174.615C76.3118 174.569 75.4462 175.287 74.6748 175.987C74.8596 176.258 75.0488 176.527 75.2436 176.792Z" fill="#553821"/>
<path fill-rule="evenodd" clip-rule="evenodd" d="M112.328 204.435C112.631 204.185 112.872 203.909 113.083 203.664C113.596 203.069 113.833 202.825 114.464 202.989L114.483 202.994C114.678 203.045 114.925 203.147 115.002 203.291C115.116 203.506 114.945 204.002 114.782 204.475C114.695 204.726 114.606 204.985 114.533 205.261C114.471 205.497 114.417 205.75 114.363 206.011C114.65 206.247 114.933 206.488 115.211 206.735C115.237 206.616 115.261 206.497 115.285 206.381C115.348 206.068 115.409 205.772 115.478 205.509C115.542 205.268 115.626 205.025 115.706 204.791C115.949 204.089 116.178 203.423 115.865 202.834C115.669 202.463 115.303 202.198 114.737 202.051L114.712 202.044C113.465 201.719 112.869 202.416 112.343 203.026C112.128 203.276 111.904 203.54 111.628 203.75C111.583 203.785 111.537 203.818 111.491 203.852C111.774 204.041 112.052 204.236 112.328 204.435Z" fill="#553821"/>
<path fill-rule="evenodd" clip-rule="evenodd" d="M92.6661 188.281C92.3301 188.257 91.7199 187.392 90.9447 187.229C90.0565 187.044 89.3599 187.204 88.7759 187.807C86.9557 189.688 90.318 189.951 91.5753 190.278L92.6661 188.281Z" fill="#BF6E5B"/>
<path fill-rule="evenodd" clip-rule="evenodd" d="M125.279 196.314L124.399 195.891C124.834 194.987 124.261 193.704 123.639 192.88C123.357 192.506 122.905 192.317 122.427 192.118C121.801 191.857 121.093 191.561 120.711 190.796L121.585 190.359C121.805 190.8 122.267 190.992 122.803 191.216C123.353 191.445 123.977 191.706 124.419 192.291C125.245 193.384 125.904 195.015 125.279 196.314Z" fill="#553821"/>
<path fill-rule="evenodd" clip-rule="evenodd" d="M86.9662 165.138C86.1961 164.938 85.451 164.57 85.4676 163.711L86.4446 163.73C86.4378 164.077 87.4416 164.255 87.9805 164.35C88.215 164.391 88.438 164.429 88.6158 164.479L88.3569 165.422C88.2221 165.384 88.0219 165.35 87.8106 165.312C87.5522 165.266 87.2574 165.214 86.9662 165.138Z" fill="#553821"/>
<path fill-rule="evenodd" clip-rule="evenodd" d="M109.689 225.338L109.692 225.376C109.738 225.313 109.782 225.248 109.825 225.183C109.709 225.163 109.653 225.217 109.689 225.338Z" fill="#F5938A"/>
<path fill-rule="evenodd" clip-rule="evenodd" d="M90.6736 231.482C91.0406 232.727 93.3634 232.196 94.3448 232.302C94.5432 232.323 94.7399 232.358 94.9343 232.402C96.0222 232.648 97.0464 233.187 98.0461 233.353C99.3861 233.575 100.468 233.328 101.752 233.683C103.242 234.095 104.478 234.513 105.977 234.787C106.666 234.913 107.076 235.138 107.969 235.121C108.704 235.107 109.116 235.298 109.825 235.482C111.464 235.904 113.253 236.368 114.914 236.563C116.769 236.781 119.001 236.262 120.871 236.154C122.614 236.054 123.928 235.458 125.586 235.143C125.609 234.972 125.634 234.8 125.657 234.63L123.524 229.875C121.333 231.109 118.236 230.822 115.649 230.985C113.048 231.149 109.998 231.796 107.429 231.453C104.63 231.079 102.045 230.625 99.1385 230.808C97.8892 230.886 96.3582 230.822 94.8503 230.853C93.329 230.885 91.8318 231.013 90.6736 231.482Z" fill="#48ABAF"/>
<path fill-rule="evenodd" clip-rule="evenodd" d="M88.4939 231.482C88.8609 232.727 91.1837 232.196 92.1651 232.302C92.3634 232.324 92.5602 232.358 92.7545 232.403C92.754 232.339 92.7533 232.278 92.7535 232.221C92.7585 231.766 92.726 231.309 92.6706 230.853C91.1493 230.885 89.6521 231.013 88.4939 231.482Z" fill="#BA8C6A"/>
<path fill-rule="evenodd" clip-rule="evenodd" d="M118.275 224.63C118.472 224.42 118.654 224.188 118.807 223.943C118.814 223.939 118.821 223.935 118.829 223.932C118.839 223.974 118.847 224.012 118.853 224.043C118.979 224.688 118.941 225.286 119.112 225.932C119.291 226.607 119.497 227.294 119.744 227.947C120.081 228.836 120.47 229.698 120.813 230.582C120.701 230.598 120.593 230.619 120.488 230.647C120.179 230.692 119.861 230.696 119.541 230.696C119.528 230.696 119.516 230.698 119.504 230.698C119.493 230.615 119.482 230.533 119.472 230.45C119.378 229.688 119.071 229.008 118.832 228.28C118.651 227.728 118.256 227.155 118.123 226.612C117.985 226.051 117.874 225.501 117.825 224.932C117.995 224.864 118.15 224.763 118.275 224.63Z" fill="#731851"/>
<path fill-rule="evenodd" clip-rule="evenodd" d="M108.066 230.157C108.06 229.698 108.015 229.225 108.129 228.781C108.357 227.888 108.798 227.155 109.117 226.278C109.234 225.957 109.311 225.636 109.376 225.313C109.549 225.392 109.729 225.436 109.91 225.445C110.015 225.477 110.12 225.51 110.225 225.542C110.149 225.871 110.046 226.199 109.999 226.542C109.868 227.488 110.125 228.426 109.884 229.37C109.703 230.08 109.45 230.762 109.199 231.443L109.152 231.437C109.036 231.421 108.919 231.407 108.803 231.393C108.789 231.391 108.722 231.383 108.672 231.376C108.614 231.367 108.53 231.353 108.526 231.352C108.47 231.34 108.415 231.326 108.36 231.31C108.226 231.271 108.09 231.256 107.956 231.26C108.022 230.911 108.072 230.57 108.066 230.157Z" fill="#731851"/>
<path fill-rule="evenodd" clip-rule="evenodd" d="M113.488 255.761C113.175 255.725 112.688 255.385 112.398 255.474C111.996 255.597 111.991 256.274 111.959 256.586C111.906 257.105 111.795 257.682 111.689 258.191C111.688 258.194 111.688 258.197 111.687 258.199C111.345 258.138 110.988 258.055 110.588 257.946C109.787 257.728 109.002 257.452 108.228 257.152C107.172 256.743 106.146 256.289 105.095 255.84C105.227 255.088 105.471 254.351 105.714 253.631C105.989 252.819 105.779 251.924 105.836 251.08C105.869 250.589 106.034 250.611 106.135 250.204C106.235 249.803 106.121 249.218 106.121 248.8C106.121 247.988 106.015 247.107 106.106 246.305C106.162 245.816 106.382 245.398 106.405 244.9C106.43 244.352 106.407 243.922 106.538 243.378C106.757 242.463 106.586 241.541 106.813 240.631C107.062 239.631 107.401 238.558 107.519 237.559C107.611 236.77 107.741 235.964 107.782 235.161C107.952 235.238 108.122 235.314 108.293 235.388C108.277 236.613 108.448 237.864 108.351 239.074C108.305 239.651 108.084 240.157 108.06 240.751C108.04 241.253 108.067 241.763 108.067 242.266C108.067 242.685 107.957 243.267 108.054 243.669C108.192 244.236 108.481 244.08 109.041 244.073C110.289 244.056 111.538 244.078 112.787 244.073C113.59 244.07 114.227 244.133 115.004 244.289C116.035 244.497 117.064 244.265 118.103 244.553C118.799 244.746 119.478 244.892 120.16 245.046C120.705 245.168 121.442 245.073 121.938 245.371C122.17 245.042 121.675 243.743 121.619 243.392C121.551 242.816 121.462 242.243 121.35 241.674C121.18 241.35 121.033 241.016 120.91 240.671C120.558 239.262 120.294 237.658 120.092 236.205C120.728 236.101 121.367 236.012 121.989 235.841C122.118 236.915 122.24 237.99 122.454 239.046C122.773 240.612 123.212 242.214 123.704 243.73C123.985 244.593 124.264 245.409 124.532 246.235C124.838 247.175 126.303 247.119 127.194 247.138C127.731 247.149 129.268 246.857 129.493 247.391C129.612 247.672 129.473 248.409 129.473 248.713C129.474 249.581 129.473 250.449 129.473 251.317C129.473 252.693 129.443 254.084 129.744 255.417C129.849 255.887 129.922 256.339 130.022 256.801C130.088 257.108 130.282 257.404 130.318 257.717C127.367 257.574 124.558 258.333 121.669 258.542C121.561 257.422 121.057 256.355 119.75 256.3C118.788 256.259 117.933 256.037 116.957 256.028C116.132 256.02 115.45 255.749 114.6 255.751C114.246 255.752 113.839 255.802 113.488 255.761Z" fill="#731851"/>
<path fill-rule="evenodd" clip-rule="evenodd" d="M132.254 208.484C134.406 208.484 137.421 207.982 138.647 210.152C139.089 210.934 139.485 212.197 139.149 213.148C138.752 214.271 137.471 214.73 136.552 215.296C135.515 215.935 134.647 216.761 133.366 216.831C132.239 216.893 130.967 216.911 129.891 216.686C128.865 216.471 127.592 216.732 126.687 216.276C125.839 215.849 125.908 214.251 126.972 214.044L132.254 208.484Z" fill="#AB7D5F"/>
<path fill-rule="evenodd" clip-rule="evenodd" d="M129.556 210.669C129.495 210.751 129.434 210.833 129.373 210.915C130.641 210.621 132.645 210.45 133.656 211.56C133.98 211.916 134.012 212.309 134.009 212.757C134.007 213.263 134.076 213.348 133.6 213.462C132.699 213.68 131.901 213.02 131.075 213.159C130.413 213.271 129.236 215.839 128.293 214.575C128.123 214.348 128.082 213.857 128.154 213.576C128.305 212.989 128.467 213.234 129.007 213.178C130.394 213.035 128.711 212.369 128.722 211.782L129.556 210.669Z" fill="#966552"/>
<path fill-rule="evenodd" clip-rule="evenodd" d="M121.525 172.864C121.524 172.957 121.524 173.05 121.523 173.142C121.915 174.791 118.796 174.526 117.867 174.489C118.786 175.411 119.34 175.908 119.867 176.996C120.064 177.402 119.976 178.395 120.88 177.746C121.235 177.492 120.976 176.176 121.003 175.783C120.417 176.786 119.837 179.728 120.721 180.529C121.127 180.896 122.675 181.185 123.187 181.145C124.26 181.062 124.452 180.798 124.275 179.631C124.284 180.074 124.281 180.517 124.266 180.959C123.946 178.667 128.216 176.988 126.907 180.527C126.482 180.447 126.24 179.997 126.427 179.44C126.681 178.681 126.859 179.015 127.569 178.909C128.645 178.749 129.579 178.676 129.812 179.726C130.017 180.648 128.851 181.435 129.302 182.127C129.665 182.684 131.986 182.138 132.44 181.889C132.53 182.142 132.592 182.402 132.626 182.669C133.124 182.753 133.598 182.813 134.106 182.855C134.324 184.14 135.235 185.992 134.486 187.198C133.692 188.476 131.757 189.183 130.376 188.707C130.479 188.236 131.977 187.921 132.451 188.362C132.906 188.785 132.452 190.333 132.628 190.937C133.953 190.951 133.575 191.534 133.36 192.403C132.942 194.092 133.758 193.625 134.164 195.166C134.551 196.633 132.217 198.314 131.049 198.737C132.187 199.26 132.991 199.702 133.106 200.928C133.236 202.311 132.298 203.168 130.966 203.237C130.637 204.48 130.929 205.978 130.887 207.271C130.856 208.228 130.764 208.303 130.334 209.074C130.04 209.602 129.282 209.632 130.074 210.272C130.47 210.592 133.679 210.482 134.212 210.326C135.809 209.859 135.684 207.209 135.948 205.946C136.302 204.259 136.81 202.532 137.46 200.94C137.952 199.873 138.481 198.824 139.046 197.792C139.464 196.617 139.728 195.409 139.838 194.168C140.535 190.852 141.738 187.569 142.331 184.251C142.66 182.409 142.743 180.241 141.28 178.904C140.313 178.021 138.688 177.541 137.565 176.798C134.757 174.941 132.268 172.628 129.219 171.145C125.143 169.163 120.872 168.061 117.277 165.198C114.536 163.015 112.25 160.211 109.458 158.11C107.568 156.688 104.413 155.33 101.994 155.221C100.287 155.143 98.5618 155.455 96.8668 155.125C95.8058 154.918 95.1787 154.704 94.1155 154.684C92.0875 154.646 91.1733 154.398 90.1595 156.327C88.9827 158.565 86.9186 160.672 84.4952 161.463C83.6517 161.738 82.6027 161.552 81.8673 161.8C81.1504 162.041 81.1545 162.66 80.9291 163.331C80.584 164.357 79.9909 168.356 78.2178 167.92C80.4924 167.844 81.4539 167.927 83.1329 166.161C84.3508 164.879 84.9422 163.296 85.895 161.937C86.3243 161.324 87.1826 160.571 87.9214 160.312C89.6706 159.698 92.4197 160.202 94.2825 160.202C96.2037 160.202 98.7056 159.757 100.535 160.257C101.301 162.013 99.5706 163.271 98.0235 162.911C99.3518 163.75 100.583 164.672 102.165 163.698C102.269 165.506 103.347 166.056 104.939 166.337C106.237 169.449 102.434 169.174 101.405 170.943C100.129 173.135 105.418 173.318 106.528 172.395C104.787 172.694 107.874 174.214 108.247 174.38C108.467 173.517 108.178 172.657 108.393 171.787C109.344 171.479 110.162 172.151 111.051 172.315C112.338 172.553 112.952 172.549 112.675 174.194C112.488 175.306 111.618 175.348 112.77 176.325C113.283 176.76 114.942 177.017 115.428 176.557C115.825 176.182 115.459 174.514 115.4 174.088C115.832 174.676 116.519 175.255 117.139 175.658C118.096 176.28 118.028 176.133 119.048 175.902C120.566 175.558 121.531 175.036 123.176 175.066L121.525 172.864Z" fill="#553821"/>
<path fill-rule="evenodd" clip-rule="evenodd" d="M88.2396 193.898C88.4188 193.898 88.6028 193.883 88.7921 193.851L88.6941 193.265C87.4257 193.476 86.4508 192.808 85.7145 191.221C85.1936 190.099 85.1849 188.996 85.1755 187.829L84.5811 187.834C84.5909 189.067 84.6001 190.232 85.1752 191.472C85.9235 193.084 86.9528 193.898 88.2396 193.898Z" fill="#553821"/>
<path fill-rule="evenodd" clip-rule="evenodd" d="M58.466 33.3245C58.1516 33.6422 58.14 33.7111 58.1695 35.1001C58.1862 35.8949 58.1462 36.5994 58.0806 36.6656C58.0148 36.7317 57.3185 36.8805 56.5331 36.996C53.0897 37.5029 50.1947 38.5242 47.1221 40.3161C44.9037 41.61 43.7012 42.5204 41.8844 44.2812C40.0062 46.1017 38.7664 47.6891 37.1694 50.3187C36.7108 51.0741 35.8289 52.8416 35.8289 53.0058C35.8289 53.0395 35.6851 53.3851 35.5093 53.7737C34.5206 55.9595 33.641 59.9949 33.6092 62.4912C33.5873 64.2177 33.6554 64.1436 31.9466 64.3015C30.6523 64.4212 30.4472 64.4739 30.232 64.7426C29.8937 65.1649 29.9264 65.6251 30.3231 66.0262C30.6558 66.3626 30.6715 66.3648 32.108 66.2797C32.9051 66.2324 35.3097 66.1068 37.4515 66.0005C39.5933 65.8942 42.3679 65.7486 43.6173 65.677C47.2052 65.4714 48.1132 65.424 49.913 65.3494C51.6829 65.2759 54.9368 65.1014 58.5451 64.8867C59.7231 64.8165 61.538 64.7281 62.578 64.6902C63.618 64.6523 64.9323 64.5949 65.4986 64.5629C66.065 64.5309 67.9302 64.4422 69.6437 64.3658C71.3571 64.2895 73.6936 64.1711 74.8359 64.1027C75.9782 64.0344 77.5846 63.9446 78.4056 63.9031C79.2267 63.8616 80.2489 63.8023 80.6773 63.7713C81.1056 63.7404 82.1863 63.6808 83.0787 63.6388C88.8981 63.3655 90.4665 63.2322 90.7333 62.988C91.0821 62.6688 91.0905 61.8639 90.7483 61.5507C90.5387 61.3588 90.2745 61.3285 89.0623 61.3567C88.2716 61.3752 87.582 61.3471 87.5298 61.2944C87.4776 61.2415 87.3368 60.5371 87.2168 59.7288C86.9734 58.0881 86.9258 57.856 86.6586 57.0125C86.5557 56.6876 86.4034 56.1561 86.3202 55.8312C86.2369 55.5064 86.116 55.1381 86.0517 55.0127C85.9871 54.8874 85.9344 54.718 85.9344 54.6365C85.9344 54.3288 84.6995 51.5459 84.0535 50.3979C83.1985 48.8782 82.446 47.7083 82.058 47.2954C81.891 47.1174 81.6001 46.7651 81.4116 46.5125C80.6138 45.4425 78.9907 43.8027 77.6644 42.7266C76.6339 41.8902 73.7889 39.9963 72.9537 39.5905C69.269 37.8002 65.8245 36.882 62.1365 36.7072C60.9727 36.6519 60.4162 36.573 60.2898 36.4453C60.1807 36.3351 60.1046 35.9653 60.098 35.514C60.0731 33.8147 60.0361 33.5442 59.7906 33.27C59.4505 32.89 58.872 32.9138 58.466 33.3245ZM48.1578 42.739C48.1563 42.8293 47.908 43.2954 47.6062 43.775C46.7777 45.0908 45.1754 48.1334 45.1751 48.3912C45.175 48.45 45.029 48.8209 44.8505 49.2154C44.672 49.61 44.526 50.0078 44.526 50.0995C44.526 50.1911 44.4717 50.3224 44.4054 50.3909C44.2304 50.5718 43.4108 53.8482 43.1759 55.3062C42.9741 56.557 42.9005 57.302 42.774 59.375C42.6616 61.2143 42.3289 61.4691 39.9932 61.505C38.1815 61.533 37.851 61.3924 37.5233 60.4545C37.2799 59.7581 37.448 58.8403 38.2977 56.225C38.9946 54.0802 39.1443 53.7022 39.8823 52.2218C41.0558 49.8676 42.0783 48.2922 43.6304 46.4468C45.7308 43.9495 48.1711 41.951 48.1578 42.739ZM66.1389 69.0505C63.99 69.103 58.2676 69.3676 55.3649 69.5487C52.9987 69.6964 51.9446 69.7558 48.4202 69.9409C46.3855 70.0476 44.0197 70.1925 43.163 70.2628C42.3063 70.3332 39.9405 70.4559 37.9058 70.5356C35.8711 70.6154 34.1257 70.7071 34.0273 70.7395C33.8432 70.8002 33.8566 71.0144 34.1295 72.3687C34.3311 73.37 34.9051 75.2851 35.1823 75.8816C35.3273 76.1935 35.5397 76.6971 35.6542 77.0009C36.239 78.5515 37.4903 80.7453 38.6174 82.1958C38.961 82.6381 39.2518 83 39.2636 83C39.2754 83 39.5734 82.8597 39.926 82.6883C41.7254 81.8132 42.5716 81.4318 43.1411 81.2391C44.9842 80.616 48.065 80.2126 50.1666 80.3196C52.1212 80.419 62.3687 80.4159 63.8023 80.3154C65.3019 80.2104 66.1838 80.031 67.0475 79.6555C67.3331 79.5313 68.2093 79.1643 68.9946 78.8402C69.78 78.516 70.4809 78.2039 70.5523 78.1465C70.6237 78.0891 71.3657 77.7425 72.2011 77.3762C73.0364 77.0099 73.825 76.6518 73.9535 76.5806C74.2327 76.4254 75.2469 75.9603 77.6917 74.866C78.6912 74.4186 79.8011 73.9133 80.158 73.7431C80.515 73.5727 81.1575 73.2761 81.5859 73.0838C82.442 72.6995 83.4911 72.2087 85.1154 71.4328C85.7001 71.1535 86.215 70.925 86.2595 70.925C86.4443 70.925 87.7343 70.272 87.8172 70.1367C87.8666 70.0559 87.799 69.8671 87.6671 69.7174C87.0821 69.0531 85.9417 68.9188 84.4328 69.3366C83.1322 69.6967 81.3681 70.2481 81.0667 70.3888C80.9239 70.4554 80.3398 70.6616 79.7686 70.8468C78.1816 71.3615 74.6956 72.5942 74.2204 72.8088C73.9878 72.9138 73.5054 73.0994 73.1484 73.2213C72.7915 73.3431 71.9153 73.6484 71.2013 73.8998C69.7772 74.4011 65.3971 75.3488 63.9211 75.475C62.7802 75.5726 62.3756 75.4802 62.1035 75.0603C61.633 74.3342 61.9854 73.3308 62.826 73.0029C63.2771 72.8269 65.1335 72.5054 65.7146 72.5024C66.1974 72.5 69.1613 72.0215 71.0026 71.6484C72.3034 71.3852 73.2736 70.8789 73.5316 70.3291C73.784 69.7915 73.7827 69.6806 73.52 69.2752L73.3075 68.9472L70.3072 68.9845C68.6572 69.0051 66.7814 69.0347 66.1389 69.0505Z" fill="white"/>
</svg>
