<svg width="36" height="36" viewBox="0 0 36 36" fill="none" xmlns="http://www.w3.org/2000/svg">
<path d="M0 18C0 8.05888 8.05888 0 18 0C27.9411 0 36 8.05888 36 18C36 27.9411 27.9411 36 18 36C8.05888 36 0 27.9411 0 18Z" fill="#EF4444"/>
<path d="M22.6666 24V22.6667C22.6666 21.9594 22.3856 21.2811 21.8855 20.781C21.3854 20.281 20.7072 20 19.9999 20H15.9999C15.2927 20 14.6144 20.281 14.1143 20.781C13.6142 21.2811 13.3333 21.9594 13.3333 22.6667V24M20.6666 14.6667C20.6666 16.1394 19.4727 17.3333 17.9999 17.3333C16.5272 17.3333 15.3333 16.1394 15.3333 14.6667C15.3333 13.1939 16.5272 12 17.9999 12C19.4727 12 20.6666 13.1939 20.6666 14.6667Z" stroke="#FAFAFA" stroke-linecap="round" stroke-linejoin="round"/>
</svg>
